<?xml version="1.0" encoding="utf-8"?>
<!-- Generator: Adobe Illustrator 25.1.0, SVG Export Plug-In . SVG Version: 6.00 Build 0)  -->
<svg version="1.1" id="Calque_1" xmlns="http://www.w3.org/2000/svg" xmlns:xlink="http://www.w3.org/1999/xlink" x="0px" y="0px"
	 viewBox="0 0 283.46 141.73" style="enable-background:new 0 0 283.46 141.73;" xml:space="preserve">
<style type="text/css">
	.st0{fill:#2B2464;}
	.st1{fill:url(#SVGID_1_);}
	.st2{fill:url(#SVGID_2_);}
</style>
<g>
	<path class="st0" d="M234.14,106.48v7.22h-0.81v-7.9h1.34c2.53,0,3.36,1.13,3.36,2.55c0,1.85-1.42,2.64-3.13,2.64h-0.16v-0.66h0.16
		c1.37,0,2.29-0.62,2.29-1.98c0-1.12-0.67-1.88-2.61-1.88H234.14z M48.45,79.44v5.53h8.85v4.1h-8.85v8.91h-4.52V75.21H59.7v4.23
		H48.45z M72.75,97.98V75.21h4.52v22.77H72.75z M106.87,94.14H95.55l-1.82,3.84h-5.04l10.96-22.77h3.12l10.96,22.77h-5.04
		L106.87,94.14z M104.89,89.88l-3.38-7.15l-0.29-0.82l-0.29,0.82l-3.38,7.15H104.89z M134.58,75.21c4.03,0,6.79,2.57,6.79,5.88
		c0,2.21-1.49,4.04-2.99,4.56c2.21,0.52,4.26,2.83,4.26,5.5c0,3.84-2.57,6.83-7.9,6.83h-9.59V75.21H134.58z M133.67,84.15
		c1.85,0,3.15-1.07,3.15-2.6c0-1.53-1.3-2.6-3.15-2.6h-4v5.2H133.67z M134.29,94.24c2.18,0,3.64-1.27,3.64-3.19
		c0-1.92-1.6-3.19-3.68-3.19h-4.59v6.38H134.29z M155.6,97.98V75.21h4.52v22.77H155.6z M192.4,93.75v4.23h-15.78V75.21h4.52v18.54
		H192.4z M202.86,97.98V75.21h4.52v22.77H202.86z M233.4,82.14c-0.52-2.28-2.37-3.45-4.42-3.45c-2.08,0-3.51,0.88-3.51,2.44
		c0,1.69,2.54,2.38,5.43,3.35c3.32,1.17,7.13,2.54,7.13,6.99c0,4.07-3.51,6.96-8.72,6.96c-4.78,0-8.07-2.7-9.3-6.83l4.42-1.21
		c0.46,2.11,2.41,3.94,5.21,3.94c2.28,0,3.67-1.17,3.67-2.63c0-2.18-3.22-2.9-6.44-4.07c-2.73-0.97-6.05-2.34-6.05-6.31
		c0-3.55,3.51-6.57,8.33-6.57c4.3,0,7.64,2.6,8.62,6.18L233.4,82.14z M43.55,109.71c0-2.44,1.57-4.03,3.53-4.03
		c1.52,0,2.51,0.66,2.97,1.84l-0.78,0.3c-0.37-0.94-1.24-1.4-2.22-1.4c-1.52,0-2.66,1.29-2.66,3.28c0,2.05,1.04,3.35,2.76,3.35
		c1.03,0,1.79-0.47,2.33-1.42l0.63,0.47c-0.66,1.11-1.61,1.7-3,1.7C44.99,113.81,43.55,112.19,43.55,109.71z M56.9,109.75
		c0-2.37,1.56-4.06,3.74-4.06c2.29,0,3.75,1.61,3.75,4.06c0,2.37-1.54,4.06-3.73,4.06C58.37,113.81,56.9,112.2,56.9,109.75z
		 M63.56,109.76c0-2.08-1.11-3.33-2.92-3.33c-1.77,0-2.9,1.32-2.9,3.31c0,2.08,1.1,3.33,2.92,3.33
		C62.43,113.07,63.56,111.75,63.56,109.76z M72.64,107.13v6.57h-0.77v-7.9h0.77l4.43,6.58v-6.58h0.76v7.9h-0.76L72.64,107.13z
		 M89.88,107.73l-0.81,0.09c-0.17-1.06-0.79-1.42-1.48-1.42c-0.72,0-1.36,0.45-1.36,1.25c0,0.94,0.62,1.25,1.69,1.62
		c1.42,0.49,2.17,1.05,2.17,2.3c0,1.35-1.01,2.26-2.5,2.26c-1.46,0-2.17-0.75-2.45-1.96l0.77-0.23c0.18,0.88,0.7,1.46,1.71,1.46
		c1.01,0,1.65-0.57,1.65-1.49c0-0.96-0.76-1.38-1.79-1.71c-1.13-0.36-2.08-0.82-2.08-2.19c0-1.21,0.89-2.03,2.25-2.03
		C88.89,105.69,89.77,106.35,89.88,107.73z M97.4,110.64v-4.84l0.81,0.03v4.81c0,1.67,0.78,2.46,2.09,2.46
		c1.25,0,2.06-0.81,2.06-2.43v-4.87h0.81v4.83c0,2.04-1.06,3.18-2.92,3.18C98.49,113.81,97.4,112.76,97.4,110.64z M115.56,113.02
		v0.68h-4.52v-7.9h0.81v7.22H115.56z M123.52,113.7v-7.22h-2.32v-0.68h5.46v0.68h-2.32v7.22H123.52z M133.95,113.7v-7.9h0.81v7.9
		H133.95z M143.49,107.13v6.57h-0.77v-7.9h0.77l4.42,6.58v-6.58h0.76v7.9h-0.76L143.49,107.13z M157,109.71
		c0,2.05,1.08,3.39,2.84,3.39c1.41,0,2.63-0.92,2.69-2.94h-2.14v-0.68h2.94v0.42c0,2.29-1.34,3.9-3.48,3.9c-2.22,0-3.7-1.63-3.7-4.1
		c0-2.4,1.63-4.03,3.64-4.03c1.5,0,2.49,0.61,3,1.79l-0.76,0.36c-0.38-0.94-1.28-1.4-2.28-1.4C158.19,106.43,157,107.73,157,109.71z
		 M179.38,109.71c0,2.05,1.07,3.39,2.84,3.39c1.41,0,2.63-0.92,2.69-2.94h-2.14v-0.68h2.94v0.42c0,2.29-1.34,3.9-3.48,3.9
		c-2.22,0-3.7-1.63-3.7-4.1c0-2.4,1.63-4.03,3.64-4.03c1.5,0,2.5,0.61,3,1.79l-0.75,0.36c-0.38-0.94-1.29-1.4-2.28-1.4
		C180.57,106.43,179.38,107.73,179.38,109.71z M193.14,113.7v-7.9h1.37c2.36,0,3.15,1.07,3.15,2.37c0,0.78-0.4,1.62-1.31,2.05
		c0.78,0.28,1.22,0.91,1.42,2.28c0.08,0.53,0.15,0.95,0.21,1.19h-0.83l-0.19-1.11c-0.25-1.65-0.65-1.97-2.04-1.97h-0.45v-0.67h0.33
		c1.46,0,2.03-0.8,2.03-1.72c0-1.05-0.64-1.75-2.46-1.75h-0.41v7.22H193.14z M204.81,109.75c0-2.37,1.55-4.06,3.74-4.06
		c2.29,0,3.75,1.61,3.75,4.06c0,2.37-1.54,4.06-3.73,4.06C206.27,113.81,204.81,112.2,204.81,109.75z M211.47,109.76
		c0-2.08-1.11-3.33-2.92-3.33c-1.77,0-2.9,1.32-2.9,3.31c0,2.08,1.1,3.33,2.92,3.33C210.34,113.07,211.47,111.75,211.47,109.76z
		 M219.69,110.64v-4.84l0.81,0.03v4.81c0,1.67,0.78,2.46,2.09,2.46c1.25,0,2.06-0.81,2.06-2.43v-4.87h0.81v4.83
		c0,2.04-1.06,3.18-2.92,3.18C220.77,113.81,219.69,112.76,219.69,110.64z"/>
	<g>
		
			<linearGradient id="SVGID_1_" gradientUnits="userSpaceOnUse" x1="74.2958" y1="54.3381" x2="208.5985" y2="54.3381" gradientTransform="matrix(1 0 0 1 2.000000e-03 -2.000000e-03)">
			<stop  offset="0.1" style="stop-color:#E7343F"/>
			<stop  offset="1" style="stop-color:#E8327C"/>
		</linearGradient>
		<path class="st1" d="M74.81,64.95C84.75,58.96,95.3,53.91,106.29,50c10.99-3.9,22.44-6.66,34.13-7.93
			c11.68-1.24,23.65-1.01,35.35,1.65c5.84,1.34,11.6,3.31,17.03,6.12c2.71,1.41,5.34,3.02,7.82,4.88c2.48,1.83,4.85,3.96,6.92,6.22
			L207.6,61c1.41,1.53,1.31,3.92-0.22,5.33c-1.53,1.41-3.92,1.31-5.33-0.22c-0.03-0.04-0.07-0.08-0.11-0.12
			c-3.45-4.08-7.67-7.43-12.4-10.12c-4.72-2.69-9.9-4.71-15.25-6.17c-10.74-2.9-22.16-3.62-33.45-2.87
			c-11.31,0.76-22.57,3-33.48,6.38c-10.91,3.39-21.49,7.94-31.55,13.47l-0.04,0.02c-0.48,0.26-1.08,0.09-1.35-0.39
			c-0.22-0.41-0.13-0.91,0.2-1.21h0L74.81,64.95z"/>
		
			<linearGradient id="SVGID_2_" gradientUnits="userSpaceOnUse" x1="74.2958" y1="47.629" x2="162.3031" y2="47.629" gradientTransform="matrix(1 0 0 1 2.000000e-03 -2.000000e-03)">
			<stop  offset="0.1" style="stop-color:#E7343F"/>
			<stop  offset="0.661" style="stop-color:#EA5240"/>
			<stop  offset="1" style="stop-color:#EB5D40"/>
		</linearGradient>
		<path class="st2" d="M76,66.54c0,0,14.68-12.35,22.62-17.63c3.98-2.63,8.05-5.09,12.24-7.28c4.19-2.18,8.49-4.12,12.89-5.55
			c4.38-1.42,8.92-2.36,13.21-2.18c2.13,0.09,4.19,0.49,6.02,1.23c1.84,0.74,3.44,1.85,4.78,3.26c2.69,2.83,4.29,6.88,5.17,11.17
			c0.88,4.31,1.1,8.89,0.99,13.48v0.02c0,0.07,0,0.15,0,0.22c0.08,2.31,2.02,4.13,4.33,4.05c2.31-0.08,4.13-2.01,4.05-4.33
			c-0.17-5.03-0.67-10.12-2-15.2c-0.67-2.53-1.56-5.06-2.81-7.5c-1.25-2.43-2.88-4.78-4.97-6.75c-2.08-1.97-4.64-3.51-7.33-4.42
			c-2.69-0.92-5.48-1.26-8.15-1.22c-5.37,0.09-10.35,1.49-15.03,3.28c-4.67,1.81-9.07,4.1-13.29,6.6
			c-4.22,2.51-8.26,5.27-12.16,8.17C88.75,51.8,81.45,58.23,74.62,65.1h0c-0.33,0.3-0.43,0.8-0.2,1.21
			c0.27,0.48,0.87,0.66,1.35,0.39l0.04-0.02L76,66.54z"/>
	</g>
</g>
</svg>
